HIERARCHY
ROOT Hips
{
	OFFSET 0.000000 83.214638 0.000000
	CHANNELS 6 Xposition Yposition Zposition Xrotation Yrotation Zrotation
	JOINT Pelvis
	{
		OFFSET 0.000000 0.000000 0.000000
		CHANNELS 3 Xrotation Yrotation Zrotation
		JOINT LeftUpLeg
		{
			OFFSET 8.479700 -4.795502 -0.379100
			CHANNELS 3 Xrotation Yrotation Zrotation
			JOINT LeftLeg
			{
				OFFSET 0.024144 -32.555107 0.112900
				CHANNELS 3 Xrotation Yrotation Zrotation
				JOINT LeftFoot
				{
					OFFSET -0.024144 -32.638630 -3.012600
					CHANNELS 3 Xrotation Yrotation Zrotation
					JOINT LeftToeBase
					{
						OFFSET 0.970200 -13.225400 11.864200
						CHANNELS 3 Xrotation Yrotation Zrotation
						End Site
						{
							OFFSET 0.000000 12.319262 0.000000
						}
					}
					JOINT LFootTongue
					{
						OFFSET 1.142400 -1.059800 6.665200
						CHANNELS 3 Xrotation Yrotation Zrotation
						End Site
						{
							OFFSET 0.000000 12.319262 0.000000
						}
					}
				}
				JOINT LeftPantLeg
				{
					OFFSET 0.918482 -16.533964 -2.284700
					CHANNELS 3 Xrotation Yrotation Zrotation
					End Site
					{
						OFFSET 0.350399 24.744368 0.000000
					}
				}
			}
		}
		JOINT RightUpLeg
		{
			OFFSET -8.479700 -4.795502 -0.379100
			CHANNELS 3 Xrotation Yrotation Zrotation
			JOINT RightLeg
			{
				OFFSET -0.023144 -32.555092 0.112900
				CHANNELS 3 Xrotation Yrotation Zrotation
				JOINT RightFoot
				{
					OFFSET 0.023144 -32.638641 -3.012700
					CHANNELS 3 Xrotation Yrotation Zrotation
					JOINT RightToeBase
					{
						OFFSET -0.970200 -13.225400 11.864200
						CHANNELS 3 Xrotation Yrotation Zrotation
						End Site
						{
							OFFSET 0.000000 12.319244 0.000000
						}
					}
					JOINT RFootTongue
					{
						OFFSET -1.142200 -1.059800 6.665200
						CHANNELS 3 Xrotation Yrotation Zrotation
						End Site
						{
							OFFSET 0.000000 12.319243 0.000000
						}
					}
				}
				JOINT RightPantLeg
				{
					OFFSET -0.919482 -16.533978 -2.284800
					CHANNELS 3 Xrotation Yrotation Zrotation
					End Site
					{
						OFFSET -0.350400 24.744419 0.000000
					}
				}
			}
		}
	}
	JOINT Spine
	{
		OFFSET 0.000000 7.722000 1.166200
		CHANNELS 3 Xrotation Yrotation Zrotation
		JOINT Spine1
		{
			OFFSET 0.000000 12.024101 0.248800
			CHANNELS 3 Xrotation Yrotation Zrotation
			JOINT Spine2
			{
				OFFSET 0.000000 11.502998 -0.491200
				CHANNELS 3 Xrotation Yrotation Zrotation
				JOINT Neck
				{
					OFFSET 0.000000 18.430702 -3.123100
					CHANNELS 3 Xrotation Yrotation Zrotation
					JOINT Head
					{
						OFFSET 0.000000 9.051102 1.034000
						CHANNELS 3 Xrotation Yrotation Zrotation
						JOINT HairB
						{
							OFFSET 0.208400 24.786102 24.822300
							CHANNELS 3 Xrotation Yrotation Zrotation
							End Site
							{
								OFFSET 0.000000 32.263779 0.000000
							}
						}
						JOINT HairA
						{
							OFFSET -7.081100 24.428299 23.196600
							CHANNELS 3 Xrotation Yrotation Zrotation
							End Site
							{
								OFFSET 0.000000 32.263779 0.000000
							}
						}
						JOINT Hat
						{
							OFFSET 16.728800 15.048294 -15.439601
							CHANNELS 3 Xrotation Yrotation Zrotation
							End Site
							{
								OFFSET 0.000000 32.263779 0.000000
							}
						}
					}
				}
				JOINT LeftShoulder
				{
					OFFSET 6.197800 13.665199 -4.064700
					CHANNELS 3 Xrotation Yrotation Zrotation
					JOINT LeftArm
					{
						OFFSET 7.778100 -0.187103 -1.709300
						CHANNELS 3 Xrotation Yrotation Zrotation
						JOINT LeftForeArm
						{
							OFFSET 22.049376 0.000000 0.000000
							CHANNELS 3 Xrotation Yrotation Zrotation
							JOINT LeftHand
							{
								OFFSET 23.009392 0.000000 0.000000
								CHANNELS 3 Xrotation Yrotation Zrotation
								JOINT LeftHandThumb1
								{
									OFFSET 3.507191 -2.063065 3.133727
									CHANNELS 3 Xrotation Yrotation Zrotation
									JOINT LeftHandThumb2
									{
										OFFSET 3.101337 -1.790558 1.790558
										CHANNELS 3 Xrotation Yrotation Zrotation
										JOINT LeftHandThumb3
										{
											OFFSET 3.058640 -1.765907 1.765906
											CHANNELS 3 Xrotation Yrotation Zrotation
											End Site
											{
												OFFSET -0.415260 3.926476 -0.049563
											}
										}
									}
								}
								JOINT LeftHandIndex1
								{
									OFFSET 11.334419 -0.901459 3.706815
									CHANNELS 3 Xrotation Yrotation Zrotation
									JOINT LeftHandIndex2
									{
										OFFSET 3.283112 0.000000 0.000000
										CHANNELS 3 Xrotation Yrotation Zrotation
										JOINT LeftHandIndex3
										{
											OFFSET 3.323853 0.000000 0.000000
											CHANNELS 3 Xrotation Yrotation Zrotation
											End Site
											{
												OFFSET -1.135597 3.097809 0.402452
											}
										}
									}
								}
								JOINT LeftHandMiddle1
								{
									OFFSET 11.335861 0.000000 0.000000
									CHANNELS 3 Xrotation Yrotation Zrotation
									JOINT LeftHandMiddle2
									{
										OFFSET 3.410492 0.000000 0.000000
										CHANNELS 3 Xrotation Yrotation Zrotation
										JOINT LeftHandMiddle3
										{
											OFFSET 3.312172 0.000000 0.000000
											CHANNELS 3 Xrotation Yrotation Zrotation
											End Site
											{
												OFFSET -1.150200 3.080154 0.400270
											}
										}
									}
								}
								JOINT LeftHandRing1
								{
									OFFSET 11.514786 -0.013176 -3.003090
									CHANNELS 3 Xrotation Yrotation Zrotation
									JOINT LeftHandRing2
									{
										OFFSET 3.053307 0.000000 0.000000
										CHANNELS 3 Xrotation Yrotation Zrotation
										JOINT LeftHandRing3
										{
											OFFSET 3.295807 0.000000 0.000000
											CHANNELS 3 Xrotation Yrotation Zrotation
											End Site
											{
												OFFSET -1.281006 3.013344 0.375733
											}
										}
									}
								}
								JOINT LeftHandPinky1
								{
									OFFSET 10.518692 -0.960396 -5.730441
									CHANNELS 3 Xrotation Yrotation Zrotation
									JOINT LeftHandPinky2
									{
										OFFSET 2.861649 0.000000 0.000000
										CHANNELS 3 Xrotation Yrotation Zrotation
										JOINT LeftHandPinky3
										{
											OFFSET 2.863380 0.000000 0.000000
											CHANNELS 3 Xrotation Yrotation Zrotation
											End Site
											{
												OFFSET -0.843597 2.711159 0.369971
											}
										}
									}
								}
							}
							JOINT LSleeve
							{
								OFFSET 6.676277 -0.344902 -1.011730
								CHANNELS 3 Xrotation Yrotation Zrotation
								End Site
								{
									OFFSET 0.000000 14.885353 0.000000
								}
							}
						}
					}
				}
				JOINT RightShoulder
				{
					OFFSET -6.197800 13.665199 -4.064700
					CHANNELS 3 Xrotation Yrotation Zrotation
					JOINT RightArm
					{
						OFFSET -7.778100 -0.187103 -1.709300
						CHANNELS 3 Xrotation Yrotation Zrotation
						JOINT RightForeArm
						{
							OFFSET -22.049376 0.000000 0.000000
							CHANNELS 3 Xrotation Yrotation Zrotation
							JOINT RightHand
							{
								OFFSET -23.009392 0.000000 0.000000
								CHANNELS 3 Xrotation Yrotation Zrotation
								JOINT RightHandThumb1
								{
									OFFSET -3.507191 -2.063065 3.133727
									CHANNELS 3 Xrotation Yrotation Zrotation
									JOINT RightHandThumb2
									{
										OFFSET -3.101337 -1.790558 1.790558
										CHANNELS 3 Xrotation Yrotation Zrotation
										JOINT RightHandThumb3
										{
											OFFSET -3.058640 -1.765907 1.765906
											CHANNELS 3 Xrotation Yrotation Zrotation
											End Site
											{
												OFFSET 0.415260 3.926476 -0.049563
											}
										}
									}
								}
								JOINT RightHandIndex1
								{
									OFFSET -11.334419 -0.901459 3.706815
									CHANNELS 3 Xrotation Yrotation Zrotation
									JOINT RightHandIndex2
									{
										OFFSET -3.283112 0.000000 0.000000
										CHANNELS 3 Xrotation Yrotation Zrotation
										JOINT RightHandIndex3
										{
											OFFSET -3.323853 0.000000 0.000000
											CHANNELS 3 Xrotation Yrotation Zrotation
											End Site
											{
												OFFSET 1.135597 3.097809 0.402452
											}
										}
									}
								}
								JOINT RightHandMiddle1
								{
									OFFSET -11.335861 0.000000 0.000000
									CHANNELS 3 Xrotation Yrotation Zrotation
									JOINT RightHandMiddle2
									{
										OFFSET -3.410492 0.000000 0.000000
										CHANNELS 3 Xrotation Yrotation Zrotation
										JOINT RightHandMiddle3
										{
											OFFSET -3.312172 0.000000 0.000000
											CHANNELS 3 Xrotation Yrotation Zrotation
											End Site
											{
												OFFSET 1.150200 3.080154 0.400270
											}
										}
									}
								}
								JOINT RightHandRing1
								{
									OFFSET -11.514786 -0.013176 -3.003090
									CHANNELS 3 Xrotation Yrotation Zrotation
									JOINT RightHandRing2
									{
										OFFSET -3.053307 0.000000 0.000000
										CHANNELS 3 Xrotation Yrotation Zrotation
										JOINT RightHandRing3
										{
											OFFSET -3.295807 0.000000 0.000000
											CHANNELS 3 Xrotation Yrotation Zrotation
											End Site
											{
												OFFSET 1.281006 3.013344 0.375733
											}
										}
									}
								}
								JOINT RightHandPinky1
								{
									OFFSET -10.518692 -0.960396 -5.730441
									CHANNELS 3 Xrotation Yrotation Zrotation
									JOINT RightHandPinky2
									{
										OFFSET -2.861649 0.000000 0.000000
										CHANNELS 3 Xrotation Yrotation Zrotation
										JOINT RightHandPinky3
										{
											OFFSET -2.863380 0.000000 0.000000
											CHANNELS 3 Xrotation Yrotation Zrotation
											End Site
											{
												OFFSET 0.843597 2.711159 0.369971
											}
										}
									}
								}
							}
							JOINT RSleeve
							{
								OFFSET -6.676277 -0.344902 -1.011730
								CHANNELS 3 Xrotation Yrotation Zrotation
								End Site
								{
									OFFSET 0.000000 14.885353 0.000000
								}
							}
						}
					}
				}
				JOINT Backpack
				{
					OFFSET 0.000000 -2.471497 36.677502
					CHANNELS 3 Xrotation Yrotation Zrotation
					End Site
					{
						OFFSET 0.000000 20.427315 0.000000
					}
				}
				JOINT Hood
				{
					OFFSET 0.000000 18.754097 -10.431000
					CHANNELS 3 Xrotation Yrotation Zrotation
					JOINT Hood1
					{
						OFFSET 0.000000 -5.011002 -7.685901
						CHANNELS 3 Xrotation Yrotation Zrotation
						End Site
						{
							OFFSET 0.000000 9.175140 0.000000
						}
					}
				}
				JOINT LHoodieString
				{
					OFFSET 5.250500 16.397697 3.089900
					CHANNELS 3 Xrotation Yrotation Zrotation
					JOINT LHoodieString1
					{
						OFFSET 0.257700 -6.364304 3.694600
						CHANNELS 3 Xrotation Yrotation Zrotation
						JOINT LHoodieString2
						{
							OFFSET 0.000000 -9.643799 2.679100
							CHANNELS 3 Xrotation Yrotation Zrotation
							End Site
							{
								OFFSET 0.000000 10.009018 0.000000
							}
						}
					}
				}
				JOINT RHoodieString
				{
					OFFSET -5.250500 16.397697 3.089900
					CHANNELS 3 Xrotation Yrotation Zrotation
					JOINT RHoodieString1
					{
						OFFSET -0.257700 -6.364304 3.694600
						CHANNELS 3 Xrotation Yrotation Zrotation
						JOINT RHoodieString2
						{
							OFFSET 0.000000 -9.643799 2.679100
							CHANNELS 3 Xrotation Yrotation Zrotation
							End Site
							{
								OFFSET 0.000000 10.009018 0.000000
							}
						}
					}
				}
			}
			JOINT LBackpack_Strap
			{
				OFFSET 15.223200 -7.719803 -6.610900
				CHANNELS 3 Xrotation Yrotation Zrotation
				End Site
				{
					OFFSET 0.000000 16.040596 0.000000
				}
			}
			JOINT RBackpack_Strap
			{
				OFFSET -15.223000 -7.719803 -6.610900
				CHANNELS 3 Xrotation Yrotation Zrotation
				End Site
				{
					OFFSET 0.000000 16.040596 0.000000
				}
			}
		}
	}
	JOINT BoyFacialAnim_Joint
	{
		OFFSET 1.000000 -82.208099 -1.550900
		CHANNELS 3 Xrotation Yrotation Zrotation
		End Site
		{
			OFFSET 0.000000 30.012791 0.000000
		}
	}
}
MOTION
Frames: 4
Frame Time: 0.016667
3.297163 73.821510 -0.666479 7.697874 -10.334425 1.617795 -0.000000 -0.000001 0.000000 -50.733819 4.825118 17.921320 42.350366 5.543948 5.049446 3.878503 0.282422 -14.848070 -0.000000 -0.000000 0.000000 -0.000000 -0.000000 0.000000 -0.000000 -0.000000 -0.000000 -28.848810 -2.609887 -28.831396 36.682856 -2.266968 -1.656039 -9.365234 -3.658706 26.992749 0.000000 -0.000002 0.000000 0.000000 -0.000002 0.000000 -0.000002 -0.000002 -0.000000 7.618957 1.478170 -2.466292 6.431367 1.228087 -0.932161 6.450692 1.172316 -0.845380 -3.222595 -0.333306 -1.041938 -12.897086 -4.165311 4.309511 -0.000000 -0.000001 0.000000 -0.000000 -0.000001 0.000000 -0.000000 -0.000001 0.000000 5.349782 -35.475907 4.326031 -77.161221 -31.121340 -22.573260 0.000012 -27.636899 0.000010 -131.009804 7.371630 18.178608 39.578720 -17.197327 -21.086442 11.236031 23.988454 2.901722 0.000000 -0.000000 -0.000001 3.600024 6.051869 -61.463479 4.128145 6.308924 -66.366182 -0.000002 0.000001 -0.000005 2.451414 5.271007 -49.859937 3.793773 6.152666 -63.285937 -0.000000 0.000000 0.000000 2.452893 5.272239 -49.876060 3.792019 6.151808 -63.269791 -0.000000 -0.000000 -0.000001 7.187302 7.991494 -61.391782 4.144314 2.228364 -66.583198 -0.000001 0.000000 -0.000000 0.000002 0.000001 -0.000001 3.654525 31.100430 -18.637121 -34.428993 31.033094 9.535803 -0.000000 29.388252 0.000000 8.244910 12.377346 -3.343647 29.376446 16.962621 20.541348 9.559552 -25.704464 -5.659322 -0.000003 -0.000000 0.000000 2.155496 -5.036565 46.317152 4.033412 -6.309998 65.142909 0.000000 -0.000001 0.000002 1.448242 -4.252517 37.599700 3.476839 -6.022589 59.964785 -0.000001 -0.000001 -0.000000 1.448243 -4.252500 37.599710 3.476822 -6.022601 59.964799 -0.000001 0.000000 0.000000 2.155509 -5.036547 46.317149 4.033391 -6.309990 65.142902 0.000002 0.000000 -0.000001 0.000000 -0.000000 -0.000000 -0.000000 0.000000 0.000000 -0.000000 0.000000 0.000000 -0.000000 0.000000 0.000000 -0.000000 0.000000 0.000000 -0.000000 0.000000 -0.000000 0.000001 0.000000 0.000000 -0.000000 0.000000 0.000000 -0.000000 0.000000 -0.000000 0.000001 0.000000 0.000000 0.000001 0.000000 -0.000000 0.000001 0.000000 -0.000000 -0.000000 -0.000001 0.000000 
3.393764 73.716133 -0.615207 7.772314 -9.913834 1.400799 0.000001 0.000001 -0.000000 -51.213643 4.520591 17.935037 42.960749 5.251936 4.822692 3.554143 0.326697 -14.593671 -0.000000 -0.000000 -0.000000 -0.000000 -0.000000 0.000000 -0.000000 0.000000 -0.000000 -28.810687 -2.923860 -28.848305 36.787440 -2.378868 -1.691087 -9.571866 -3.724687 27.101269 0.000000 -0.000002 0.000000 0.000000 -0.000002 0.000000 -0.000001 0.000000 0.000000 7.623528 1.329586 -2.534279 6.424122 1.146838 -0.979023 6.443376 1.089222 -0.899067 -3.752344 -0.436694 -0.755377 -12.941247 -4.384519 4.621764 0.000000 0.000000 -0.000000 0.000000 0.000000 -0.000000 0.000000 0.000000 -0.000000 5.326297 -35.461031 4.512438 -76.482109 -31.696927 -21.754426 -0.000009 -27.909744 0.000002 -131.195476 7.258881 17.612946 39.578730 -17.197329 -21.086442 11.236023 23.988453 2.901718 -0.000002 -0.000001 0.000000 3.600023 6.051872 -61.463486 4.128145 6.308924 -66.366175 -0.000000 -0.000000 -0.000000 2.451413 5.271010 -49.859940 3.793771 6.152666 -63.285937 -0.000000 -0.000000 0.000000 2.452892 5.272242 -49.876056 3.792020 6.151808 -63.269798 -0.000000 0.000000 -0.000002 7.187300 7.991497 -61.391782 4.144315 2.228364 -66.583191 -0.000000 0.000000 -0.000002 0.000001 0.000000 0.000001 3.490721 30.381323 -18.452917 -35.039909 31.378060 10.047764 -0.000000 29.551568 0.000001 7.728508 12.424331 -3.658105 29.376446 16.962621 20.541345 9.559547 -25.704461 -5.659314 -0.000000 0.000000 -0.000002 2.155497 -5.036566 46.317149 4.033409 -6.310000 65.142902 0.000001 -0.000001 -0.000000 1.448242 -4.252516 37.599700 3.476838 -6.022588 59.964778 0.000000 -0.000000 0.000002 1.448244 -4.252502 37.599710 3.476823 -6.022602 59.964792 -0.000002 0.000000 0.000002 2.155510 -5.036548 46.317149 4.033392 -6.309990 65.142902 -0.000000 0.000000 0.000002 -0.000000 0.000000 0.000000 -0.000000 0.000000 -0.000000 -0.000000 0.000000 -0.000000 -0.000000 0.000000 -0.000000 -0.000000 0.000000 -0.000000 -0.000000 0.000000 -0.000000 -0.000000 -0.000000 0.000000 -0.000000 0.000000 -0.000000 -0.000000 0.000000 -0.000000 -0.000000 -0.000000 0.000000 0.000000 -0.000001 0.000000 0.000000 -0.000001 0.000000 0.000001 0.000001 -0.000000 
3.505122 73.595459 -0.547973 7.721073 -9.558505 1.294759 -0.000001 0.000001 -0.000000 -51.553817 4.330781 17.817452 43.617762 5.029910 4.707207 3.212892 0.372113 -14.406862 -0.000000 -0.000000 -0.000000 -0.000000 -0.000000 -0.000000 -0.000000 -0.000000 0.000001 -28.706571 -3.128283 -29.025029 36.992147 -2.421751 -1.684017 -9.832413 -3.800792 27.184151 -0.000000 0.000001 0.000000 -0.000000 0.000001 0.000000 -0.000000 -0.000001 0.000001 7.641547 1.216350 -2.613242 6.433796 1.091085 -1.028593 6.452329 1.034178 -0.954309 -4.162271 -0.548712 -0.475729 -12.750504 -4.641914 4.905307 0.000001 0.000000 -0.000000 0.000001 0.000000 -0.000000 0.000001 0.000000 -0.000000 5.318308 -35.463688 4.617414 -75.973171 -32.528083 -21.224063 -0.000005 -27.688224 0.000001 -131.101765 6.992708 16.947883 39.578723 -17.197325 -21.086437 11.236028 23.988453 2.901719 0.000001 -0.000001 -0.000002 3.600023 6.051867 -61.463479 4.128145 6.308925 -66.366175 -0.000000 0.000000 -0.000000 2.451413 5.271005 -49.859934 3.793771 6.152668 -63.285937 -0.000001 0.000000 -0.000002 2.452893 5.272238 -49.876049 3.792021 6.151808 -63.269791 -0.000001 0.000001 -0.000002 7.187303 7.991491 -61.391789 4.144316 2.228362 -66.583191 0.000002 0.000000 -0.000000 -0.000000 0.000002 -0.000001 3.343507 29.595678 -18.253976 -35.737616 31.911313 10.742132 0.000002 29.323419 -0.000001 7.359823 12.604403 -3.966195 29.376446 16.962618 20.541343 9.559555 -25.704459 -5.659319 -0.000001 -0.000001 0.000001 2.155496 -5.036570 46.317149 4.033415 -6.310002 65.142902 0.000000 0.000000 0.000002 1.448243 -4.252517 37.599696 3.476841 -6.022587 59.964785 0.000000 -0.000000 0.000002 1.448244 -4.252501 37.599710 3.476825 -6.022600 59.964799 0.000001 0.000000 0.000002 2.155509 -5.036551 46.317149 4.033391 -6.309990 65.142902 -0.000000 -0.000001 0.000000 0.000000 -0.000000 0.000000 0.000000 0.000000 0.000000 0.000000 0.000000 0.000000 0.000000 0.000000 0.000000 0.000000 0.000000 0.000000 0.000000 0.000000 -0.000000 0.000000 -0.000000 -0.000000 0.000000 0.000000 0.000000 0.000000 0.000000 -0.000000 0.000000 -0.000000 -0.000000 0.000002 0.000000 0.000000 0.000002 0.000000 0.000000 -0.000001 0.000001 -0.000000 
3.621158 73.474144 -0.476834 7.601786 -9.400701 1.293312 0.000001 0.000000 -0.000000 -51.828715 4.463810 17.680701 44.259728 4.791644 4.828142 2.878380 0.416559 -14.311562 -0.000000 -0.000000 0.000000 -0.000000 -0.000000 -0.000000 0.000000 0.000000 0.000000 -28.605104 -3.135019 -29.243677 37.242484 -2.408616 -1.686862 -10.065865 -3.871332 27.270439 -0.000000 0.000001 0.000000 -0.000000 0.000001 0.000000 -0.000000 0.000000 -0.000002 7.674465 1.141889 -2.701401 6.458411 1.059676 -1.078916 6.476069 1.004667 -1.008483 -4.451149 -0.648957 -0.252692 -12.418162 -4.890463 5.127134 0.000001 0.000001 0.000000 0.000001 0.000001 0.000000 0.000001 0.000001 0.000000 5.324652 -35.494451 4.670766 -75.597763 -33.466554 -20.902981 -0.000008 -27.148696 0.000005 -130.986540 6.692516 16.411309 39.578720 -17.197329 -21.086442 11.236021 23.988456 2.901719 -0.000002 0.000000 -0.000002 3.600024 6.051869 -61.463486 4.128144 6.308922 -66.366175 0.000001 0.000001 -0.000003 2.451414 5.271007 -49.859937 3.793772 6.152666 -63.285937 0.000001 0.000000 -0.000002 2.452893 5.272238 -49.876060 3.792020 6.151808 -63.269791 -0.000001 -0.000000 -0.000000 7.187302 7.991494 -61.391782 4.144316 2.228361 -66.583191 0.000000 -0.000001 0.000005 -0.000000 0.000001 0.000000 3.228993 28.899347 -18.100976 -36.415259 32.483068 11.481574 -0.000002 28.812634 0.000001 7.126552 12.795565 -4.183797 29.376446 16.962619 20.541348 9.559544 -25.704461 -5.659314 -0.000002 -0.000000 0.000001 2.155496 -5.036567 46.317152 4.033413 -6.309999 65.142902 -0.000001 0.000001 0.000002 1.448241 -4.252518 37.599700 3.476840 -6.022588 59.964785 -0.000001 0.000001 -0.000002 1.448244 -4.252498 37.599706 3.476822 -6.022602 59.964799 0.000000 -0.000000 0.000002 2.155510 -5.036549 46.317152 4.033392 -6.309989 65.142902 -0.000001 -0.000001 0.000000 -0.000001 -0.000000 -0.000000 0.000001 0.000001 -0.000000 0.000001 0.000001 -0.000000 0.000001 0.000001 -0.000000 0.000001 0.000001 -0.000000 0.000001 0.000001 -0.000000 -0.000001 0.000000 0.000000 0.000001 0.000001 -0.000000 0.000001 0.000001 -0.000000 -0.000001 0.000000 0.000000 0.000002 0.000000 -0.000000 0.000002 0.000000 -0.000000 0.000001 0.000000 -0.000000 
